<svg width="170" height="118" viewBox="0 0 170 118" fill="none" xmlns="http://www.w3.org/2000/svg">
<path d="M168.5 82.5C168.5 86.8803 166.381 91.1881 162.266 95.2509C158.147 99.3189 152.108 103.051 144.526 106.218C129.368 112.549 108.323 116.5 85 116.5C61.6768 116.5 40.6321 112.549 25.474 106.218C17.8917 103.051 11.8535 99.3189 7.73365 95.2509C3.6192 91.1881 1.5 86.8803 1.5 82.5C1.5 78.1197 3.6192 73.8119 7.73365 69.7491C11.8535 65.6811 17.8917 61.9486 25.474 58.7818C40.6321 52.4511 61.6768 48.5 85 48.5C108.323 48.5 129.368 52.4511 144.526 58.7818C152.108 61.9486 158.147 65.6811 162.266 69.7491C166.381 73.8119 168.5 78.1197 168.5 82.5Z" stroke="white" stroke-width="3"/>
<rect x="71.5" y="1.5" width="28" height="79" stroke="white" stroke-width="3"/>
</svg>
