<svg width="726" height="583" viewBox="0 0 726 583" fill="none" xmlns="http://www.w3.org/2000/svg">
<rect x="1.5" y="1.5" width="723" height="463" rx="13.5" stroke="white" stroke-width="3"/>
<path d="M445.5 547.5C445.5 551.88 443.381 556.188 439.266 560.251C435.147 564.319 429.108 568.051 421.526 571.218C406.368 577.549 385.323 581.5 362 581.5C338.677 581.5 317.632 577.549 302.474 571.218C294.892 568.051 288.853 564.319 284.734 560.251C280.619 556.188 278.5 551.88 278.5 547.5C278.5 543.12 280.619 538.812 284.734 534.749C288.853 530.681 294.892 526.949 302.474 523.782C317.632 517.451 338.677 513.5 362 513.5C385.323 513.5 406.368 517.451 421.526 523.782C429.108 526.949 435.147 530.681 439.266 534.749C443.381 538.812 445.5 543.12 445.5 547.5Z" stroke="white" stroke-width="3"/>
<rect x="348.5" y="466.5" width="28" height="79" stroke="white" stroke-width="3"/>
<rect x="15.5" y="13.5" width="696" height="438" stroke="white"/>
</svg>
